<?xml version="1.0" ?><svg data-name="Layer 1" id="Layer_1" viewBox="0 0 272 272" xmlns="http://www.w3.org/2000/svg"><defs><style>.cls-1{fill:#4cb050;}.cls-2{fill:#8bc24a;}</style></defs><title/><path class="cls-1" d="M49.61,184.37c26,5.19,52.54-18.12,52.54-18.12s-15.61-31.72-41.61-36.91S8,147.46,8,147.46,23.61,179.18,49.61,184.37Z"/><path class="cls-1" d="M195.24,60.11c-26,24-25.42,67-25.42,67s42.75,4.15,68.76-19.84,25.42-67,25.42-67S221.24,36.13,195.24,60.11Z"/><path class="cls-2" d="M205,78a232.79,232.79,0,0,0-51.31,77.11h0a234.26,234.26,0,0,0-16.58,69.23q-.32,3.8-.51,7.62h14.07A223.12,223.12,0,0,1,210,82.9Z"/><path class="cls-2" d="M149.66,232a110.66,110.66,0,0,0-47.89-68.14,108.21,108.21,0,0,0-60.14-17.33q0,3.52-.08,7A99.33,99.33,0,0,1,104,178.89h0A98.52,98.52,0,0,1,134.62,232Z"/></svg>